<?xml version="1.0" standalone="no"?>
<!DOCTYPE svg PUBLIC "-//W3C//DTD SVG 1.1//EN" "http://www.w3.org/Graphics/SVG/1.1/DTD/svg11.dtd">
<svg t="1571377986185" class="icon" viewBox="0 0 1024 1024" version="1.1" xmlns="http://www.w3.org/2000/svg" p-id="2141" xmlns:xlink="http://www.w3.org/1999/xlink" width="16" height="16">
  <defs>
    <style type="text/css">
    </style>
  </defs>
  <path d="M377.024 636.608c0-153.92 149.888-278.656 334.72-278.656 0.96 0 1.92 0.192 2.88 0.256-26.368-149.952-175.04-264.896-355.008-264.896C161.024 93.312 0 233.152 0 405.632 0 498.56 47.104 581.952 121.408 639.104c-5.248 22.528-12.672 54.72-17.536 78.784-3.2 33.792-11.264 39.232 25.152 18.752 26.048-13.632 62.08-34.048 83.456-46.272a404.224 404.224 0 0 0 180.224 26.048c-9.216-25.408-15.68-51.84-15.68-79.808z m109.632-402.688a58.112 58.112 0 1 1 0 116.288 58.112 58.112 0 0 1 0-116.288z m-254.08 116.288a58.112 58.112 0 1 1 0-116.288 58.112 58.112 0 0 1 0 116.288z" fill="#0e932e" p-id="2142" data-spm-anchor-id="a313x.7781069.0.i2" class=""></path>
  <path d="M1021.248 636.608c0-141.184-137.536-255.68-307.136-255.68-169.6 0-307.072 114.496-307.072 255.68 0 141.184 137.472 255.68 307.072 255.68 33.6 0 65.28-5.632 95.552-13.888 19.2 10.88 54.976 31.104 80.832 44.672 31.488 12.608 34.432 21.76 25.024-18.88-3.904-19.52-9.6-44.416-14.592-65.92 72.704-46.784 120.32-119.296 120.32-201.664zM614.784 601.6a44.608 44.608 0 1 1 0-89.28 44.608 44.608 0 0 1 0 89.28z m154.112-44.672a44.608 44.608 0 1 1 89.216 0 44.608 44.608 0 0 1-89.216 0z" fill="#0e932e" p-id="2143" data-spm-anchor-id="a313x.7781069.0.i0" class=""></path>
</svg>